<?xml version="1.0" encoding="UTF-8" standalone="no"?>
<!-- Created with Inkscape (http://www.inkscape.org/) -->

<svg
   width="133.01271mm"
   height="130.87881mm"
   viewBox="0 0 133.01271 130.87881"
   version="1.1"
   id="svg1"
   xml:space="preserve"
   xmlns="http://www.w3.org/2000/svg"
   xmlns:svg="http://www.w3.org/2000/svg"><defs
     id="defs1" /><g
     id="layer1"
     transform="translate(-38.587907,-63.661196)"><ellipse
       style="fill:#2c332c;fill-opacity:1;stroke-width:0.26985"
       id="path1"
       cx="105.09426"
       cy="129.1006"
       rx="66.506355"
       ry="65.439407" /><ellipse
       style="fill:#fefefb;fill-opacity:1;stroke-width:0.257112"
       id="path1-1"
       cx="105.05341"
       cy="129.27998"
       rx="63.57225"
       ry="62.149654" /><ellipse
       style="fill:#465a47;fill-opacity:1;stroke-width:0.243746"
       id="path1-1-4"
       cx="105.12536"
       cy="129.15228"
       rx="60.114376"
       ry="59.069" /><path
       style="fill:#fefefb;fill-opacity:1;stroke:#ffffff;stroke-width:0.264583;stroke-opacity:1"
       d="m 151.83314,171.17424 -27.17818,-15.75565 c 0,0 -5.65803,12.28962 -18.29435,11.19216 -12.503108,-1.08589 -16.201764,8.76389 -16.244895,10.14678 -0.09647,3.09323 -0.303565,9.27923 -0.303565,9.27923 l -3.567277,-1.20347 0.788769,-10.5399 6.890044,-8.81245 c -4.368465,-2.50567 -6.410722,-5.07421 -7.824276,-9.78035 l -27.567151,15.699 c 25.32686,26.65353 72.710981,22.74223 93.300881,-0.22535 z"
       id="path2" /><path
       style="fill:#2c332c;fill-opacity:1;stroke:none;stroke-width:0.264583;stroke-opacity:1"
       d="m 152.14648,165.7265 -32.94411,-18.10669 c 7.64859,-8.30713 9.09038,-22.48251 7.54445,-39.48264 16.63719,-4.59914 12.89645,-31.352739 -7.79593,-26.405588 -5.99784,-11.099382 -22.652082,-9.91855 -26.657073,0.502965 -14.234923,-7.206336 -29.735137,15.06323 -8.927602,26.279843 -0.286186,13.28553 -2.83071,26.91323 7.418713,38.60246 l -31.830861,19.82227 2.565592,2.97747 24.28706,-13.93593 c 0.645689,3.78894 3.638137,7.31349 8.321129,9.46516 -3.485601,2.44271 -6.987188,4.86156 -7.266276,10.01547 l -0.50362,9.30035 3.664903,1.23901 c -0.776349,-13.26991 2.847198,-18.89389 14.907925,-19.20535 13.30133,-0.02 17.88666,-6.4477 19.92993,-10.81372 l 24.4566,13.58002 z"
       id="path4" /><path
       style="fill:#fefefb;fill-opacity:1;stroke:none;stroke-width:0.264583"
       d="m 106.9426,160.0637 c 9.83012,-1.40782 14.23493,-11.38317 14.73903,-8.78846 0.868,4.4678 -4.72685,11.26754 -14.67616,12.48387 z"
       id="path3" /><path
       style="fill:#fefefb;fill-opacity:1;stroke:none;stroke-width:0.264583"
       d="m 103.25601,160.06572 c -9.830119,-1.40782 -14.234931,-11.38317 -14.739029,-8.78846 -0.804911,4.14307 3.947687,10.2914 12.576529,12.1332 0.67633,0.14436 1.37648,0.26226 2.09963,0.35067 z"
       id="path3-3" /><path
       style="fill:#fefefb;fill-opacity:1;stroke:none;stroke-width:0.264583;stroke-opacity:1"
       d="M 105.09427,149.90604 C 91.470188,149.66206 86.807705,135.8069 87.222907,122.25433 h 35.742723 c 0.84623,9.12643 -2.1149,27.72571 -17.87136,27.65171 z"
       id="path5" /><path
       style="fill:#fefefb;fill-opacity:1;stroke:none;stroke-width:0.264583;stroke-opacity:1"
       d="m 87.133995,118.96458 36.187285,-0.0889 -0.17783,-14.75944 c 18.48162,-2.75778 7.25815,-29.22198 -5.8682,-14.937254 C 115.15571,75.695384 97.137433,72.567049 93.446763,89.00116 81.732913,74.659975 68.764028,100.56841 86.778347,104.38298 Z"
       id="path6" /><path
       style="fill:#c6d1bb;fill-opacity:1;stroke:none;stroke-width:0.264583;stroke-opacity:1"
       d="m 120.23435,122.25665 2.82916,3.7e-4 c 0.96159,19.61993 -8.87625,26.19437 -12.96655,26.96064 0.17497,-0.42333 11.47942,-8.29133 10.13739,-26.96101 z"
       id="path7" /><path
       style="fill:#c6d1bb;fill-opacity:1;stroke:none;stroke-width:0.264583;stroke-opacity:1"
       d="m 120.24085,118.88016 0.15606,-16.60781 c 6.13302,-0.86542 12.15657,-5.682374 9.74492,-14.945296 4.15887,3.213136 4.87972,16.862136 -7.04149,16.786406 l 0.25148,14.77456 z"
       id="path8" /><path
       style="fill:#2c332c;fill-opacity:1;stroke:none;stroke-width:0.264583;stroke-opacity:1"
       d="m 113.55036,101.59178 c -7.01269,6.45753 -10.44542,5.14903 -17.940972,-0.71129 -1.534366,-1.203735 -3.980926,1.49455 -2.332255,2.95121 2.010185,1.77607 6.660964,5.69594 12.082957,5.76304 4.68366,-0.0564 9.17423,-4.08163 11.17491,-5.73309 2.01574,-1.6639 -0.47121,-4.584316 -2.98464,-2.26987 z"
       id="path9" /><ellipse
       style="fill:#2c332c;fill-opacity:1;stroke:none;stroke-width:0.264583;stroke-opacity:1"
       id="path10"
       cx="98.625908"
       cy="177.22432"
       rx="2.0227535"
       ry="1.9338412" /><ellipse
       style="fill:#2c332c;fill-opacity:1;stroke:none;stroke-width:0.264583;stroke-opacity:1"
       id="path10-4"
       cx="110.14419"
       cy="177.24359"
       rx="2.0227535"
       ry="1.9338412" /><path
       style="fill:#2c332c;fill-opacity:1;stroke:none;stroke-width:0.264583;stroke-opacity:1"
       d="M 70.596319,159.68639 69.707197,127.50015 C 85.295106,117.84521 76.780942,98.009981 64.461375,96.736518 51.198446,98.480811 44.980242,120.45188 59.660113,127.41124 l -0.76338,37.15361 c -0.01178,0.57308 0.62062,1.81613 1.009469,2.22912 z"
       id="path11" /><path
       style="fill:#808080;fill-opacity:1;stroke:none;stroke-width:0.264583;stroke-opacity:1"
       d="m 66.639724,162.7094 c 0.133368,-0.57793 0.08891,-21.96132 0.08891,-21.96132 l -4.423384,0.0667 -0.06668,22.25029 c -0.0022,0.72794 0.285294,1.42488 0.889124,1.73379 z"
       id="path12" /><path
       style="fill:#e3dedb;fill-opacity:1;stroke:none;stroke-width:0.264583;stroke-opacity:1"
       d="m 62.394165,137.41386 4.245559,-0.0667 -0.333416,-9.13572 c -0.03428,-0.93938 -3.575446,-1.01495 -3.623175,0.13334 z"
       id="path13" /><path
       style="fill:#e3dedb;fill-opacity:1;stroke:none;stroke-width:0.264583;stroke-opacity:1"
       d="m 64.283551,124.7661 c 14.079169,-0.0224 12.723291,-24.32237 0,-24.33972 -12.9992,-0.03 -12.927162,24.3127 0,24.33972 z"
       id="path14" /><path
       style="fill:#2c332c;fill-opacity:1;stroke:none;stroke-width:0.264583;stroke-opacity:1"
       d="m 65.819041,119.76374 c 0.919832,-1.32394 -4.804589,-1.12551 -4.864353,-7.13598 -0.05286,-5.3163 5.430189,-6.82635 5.005812,-7.49712 -3.037632,-4.80128 -8.212431,1.26137 -8.346052,7.21438 -0.125003,5.56905 5.335703,11.548 8.204593,7.41872 z"
       id="path15" /><path
       style="fill:#2c332c;fill-opacity:1;stroke:none;stroke-width:0.264583;stroke-opacity:1"
       d="m 138.78428,158.66343 1.22886,-12.25091 c 36.71457,-7.61588 11.52327,-47.50151 9.6814,-47.643047 -6.28135,0.02749 -34.70908,28.404477 -13.89437,46.209777 l -0.55124,11.55356 z"
       id="path16" /><path
       style="fill:#9fba91;fill-opacity:1;stroke:none;stroke-width:0.264583;stroke-opacity:1"
       d="m 140.03678,143.54881 c 28.8787,-12.21324 10.65793,-35.78979 8.62449,-39.29921 -27.77477,19.87935 -12.14349,36.00503 -12.00316,38.00999 3.73745,-12.8304 7.81159,-29.59183 9.82481,-29.25213 2.98711,0.50402 -4.34158,20.34555 -6.44614,30.54135 z"
       id="path17" /></g></svg>
