<?xml version="1.0" encoding="UTF-8" standalone="no"?>
<!-- Created with Inkscape (http://www.inkscape.org/) -->

<svg
   width="658.71533mm"
   height="130.87881mm"
   viewBox="0 0 658.71533 130.87881"
   version="1.1"
   id="svg1"
   xml:space="preserve"
   xmlns="http://www.w3.org/2000/svg"
   xmlns:svg="http://www.w3.org/2000/svg"><defs
     id="defs1"><rect
       x="662.68323"
       y="150.54874"
       width="1173.4736"
       height="521.54382"
       id="rect17" /></defs><g
     id="layer1"
     transform="translate(-26.851495,-36.276223)"><ellipse
       style="fill:#2c332c;fill-opacity:1;stroke-width:0.26985"
       id="path1"
       cx="93.357849"
       cy="101.71563"
       rx="66.506355"
       ry="65.439407" /><ellipse
       style="fill:#fefefb;fill-opacity:1;stroke-width:0.257112"
       id="path1-1"
       cx="93.317001"
       cy="101.89501"
       rx="63.57225"
       ry="62.149654" /><ellipse
       style="fill:#465a47;fill-opacity:1;stroke-width:0.243746"
       id="path1-1-4"
       cx="93.388947"
       cy="101.76731"
       rx="60.114376"
       ry="59.069" /><path
       style="fill:#fefefb;fill-opacity:1;stroke:#ffffff;stroke-width:0.264583;stroke-opacity:1"
       d="m 140.09672,143.78927 -27.17818,-15.75565 c 0,0 -5.65803,12.28962 -18.294346,11.19216 -12.503108,-1.08589 -16.201764,8.76389 -16.244895,10.14678 -0.09647,3.09323 -0.303565,9.27923 -0.303565,9.27923 l -3.567277,-1.20347 0.788769,-10.5399 6.890044,-8.81245 c -4.368465,-2.50567 -6.410722,-5.07421 -7.824276,-9.78035 l -27.567151,15.699 c 25.32686,26.65353 72.710977,22.74223 93.300877,-0.22535 z"
       id="path2" /><path
       style="fill:#2c332c;fill-opacity:1;stroke:none;stroke-width:0.264583;stroke-opacity:1"
       d="m 140.41006,138.34153 -32.94411,-18.10669 c 7.64859,-8.30713 9.09038,-22.48251 7.54445,-39.48264 16.63719,-4.59914 12.89645,-31.352739 -7.79593,-26.405588 -5.99784,-11.099382 -22.652078,-9.91855 -26.657069,0.502965 -14.234923,-7.206336 -29.735137,15.06323 -8.927602,26.279843 -0.286186,13.28553 -2.83071,26.91323 7.418713,38.60246 l -31.830861,19.82227 2.565592,2.97747 24.28706,-13.93593 c 0.645689,3.78894 3.638137,7.31349 8.321129,9.46516 -3.485601,2.44271 -6.987188,4.86156 -7.266276,10.01547 l -0.50362,9.30035 3.664903,1.23901 c -0.776349,-13.26991 2.847198,-18.89389 14.907925,-19.20535 13.301326,-0.02 17.886656,-6.4477 19.929926,-10.81372 l 24.4566,13.58002 z"
       id="path4" /><path
       style="fill:#fefefb;fill-opacity:1;stroke:none;stroke-width:0.264583"
       d="m 95.206184,132.67873 c 9.830116,-1.40782 14.234926,-11.38317 14.739026,-8.78846 0.868,4.4678 -4.72685,11.26754 -14.676156,12.48387 z"
       id="path3" /><path
       style="fill:#fefefb;fill-opacity:1;stroke:none;stroke-width:0.264583"
       d="m 91.519594,132.68075 c -9.830119,-1.40782 -14.234931,-11.38317 -14.739029,-8.78846 -0.804911,4.14307 3.947687,10.2914 12.576529,12.1332 0.67633,0.14436 1.37648,0.26226 2.09963,0.35067 z"
       id="path3-3" /><path
       style="fill:#fefefb;fill-opacity:1;stroke:none;stroke-width:0.264583;stroke-opacity:1"
       d="M 93.357854,122.52107 C 79.733772,122.27709 75.071289,108.42193 75.486491,94.86936 h 35.742719 c 0.84623,9.12643 -2.1149,27.72571 -17.871356,27.65171 z"
       id="path5" /><path
       style="fill:#fefefb;fill-opacity:1;stroke:none;stroke-width:0.264583;stroke-opacity:1"
       d="m 75.397579,91.57961 36.187281,-0.0889 -0.17783,-14.75944 c 18.48162,-2.75778 7.25815,-29.22198 -5.8682,-14.937254 C 103.41929,48.310414 85.401017,45.182079 81.710347,61.61619 69.996497,47.275005 57.027612,73.18344 75.041931,76.99801 Z"
       id="path6" /><path
       style="fill:#c6d1bb;fill-opacity:1;stroke:none;stroke-width:0.264583;stroke-opacity:1"
       d="m 108.49793,94.87168 2.82916,3.7e-4 c 0.96159,19.61993 -8.87625,26.19437 -12.966546,26.96064 0.17497,-0.42333 11.479416,-8.29133 10.137386,-26.96101 z"
       id="path7" /><path
       style="fill:#c6d1bb;fill-opacity:1;stroke:none;stroke-width:0.264583;stroke-opacity:1"
       d="m 108.50443,91.49519 0.15606,-16.60781 c 6.13302,-0.86542 12.15657,-5.682374 9.74492,-14.945296 4.15887,3.213136 4.87972,16.862136 -7.04149,16.786406 l 0.25148,14.77456 z"
       id="path8" /><path
       style="fill:#2c332c;fill-opacity:1;stroke:none;stroke-width:0.264583;stroke-opacity:1"
       d="m 101.81394,74.20681 c -7.012686,6.45753 -10.445416,5.14903 -17.940968,-0.71129 -1.534366,-1.203735 -3.980926,1.49455 -2.332255,2.95121 2.010185,1.77607 6.660964,5.69594 12.082957,5.76304 4.68366,-0.0564 9.174226,-4.08163 11.174906,-5.73309 2.01574,-1.6639 -0.47121,-4.584316 -2.98464,-2.26987 z"
       id="path9" /><ellipse
       style="fill:#2c332c;fill-opacity:1;stroke:none;stroke-width:0.264583;stroke-opacity:1"
       id="path10"
       cx="86.889496"
       cy="149.83936"
       rx="2.0227535"
       ry="1.9338412" /><ellipse
       style="fill:#2c332c;fill-opacity:1;stroke:none;stroke-width:0.264583;stroke-opacity:1"
       id="path10-4"
       cx="98.407776"
       cy="149.85863"
       rx="2.0227535"
       ry="1.9338412" /><path
       style="fill:#2c332c;fill-opacity:1;stroke:none;stroke-width:0.264583;stroke-opacity:1"
       d="M 58.859903,132.30142 57.970781,100.11518 C 73.55869,90.46024 65.044526,70.625011 52.724959,69.351548 39.46203,71.095841 33.243826,93.06691 47.923697,100.02627 l -0.76338,37.15361 c -0.01178,0.57308 0.62062,1.81613 1.009469,2.22912 z"
       id="path11" /><path
       style="fill:#808080;fill-opacity:1;stroke:none;stroke-width:0.264583;stroke-opacity:1"
       d="m 54.903308,135.32443 c 0.133368,-0.57793 0.08891,-21.96132 0.08891,-21.96132 l -4.423384,0.0667 -0.06668,22.25029 c -0.0022,0.72794 0.285294,1.42488 0.889124,1.73379 z"
       id="path12" /><path
       style="fill:#e3dedb;fill-opacity:1;stroke:none;stroke-width:0.264583;stroke-opacity:1"
       d="m 50.657749,110.02889 4.245559,-0.0667 -0.333416,-9.13572 c -0.03428,-0.93938 -3.575446,-1.01495 -3.623175,0.13334 z"
       id="path13" /><path
       style="fill:#e3dedb;fill-opacity:1;stroke:none;stroke-width:0.264583;stroke-opacity:1"
       d="m 52.547135,97.38113 c 14.079169,-0.0224 12.723291,-24.32237 0,-24.33972 -12.9992,-0.03 -12.927162,24.3127 0,24.33972 z"
       id="path14" /><path
       style="fill:#2c332c;fill-opacity:1;stroke:none;stroke-width:0.264583;stroke-opacity:1"
       d="m 54.082625,92.37877 c 0.919832,-1.32394 -4.804589,-1.12551 -4.864353,-7.13598 -0.05286,-5.3163 5.430189,-6.82635 5.005812,-7.49712 -3.037632,-4.80128 -8.212431,1.26137 -8.346052,7.21438 -0.125003,5.56905 5.335703,11.548 8.204593,7.41872 z"
       id="path15" /><path
       style="fill:#2c332c;fill-opacity:1;stroke:none;stroke-width:0.264583;stroke-opacity:1"
       d="m 127.04786,131.27846 1.22886,-12.25091 c 36.71457,-7.61588 11.52327,-47.50151 9.6814,-47.643047 -6.28135,0.02749 -34.70908,28.404477 -13.89437,46.209777 l -0.55124,11.55356 z"
       id="path16" /><path
       style="fill:#9fba91;fill-opacity:1;stroke:none;stroke-width:0.264583;stroke-opacity:1"
       d="m 128.30036,116.16384 c 28.8787,-12.21324 10.65793,-35.78979 8.62449,-39.29921 -27.77477,19.87935 -12.14349,36.00503 -12.00316,38.00999 3.73745,-12.8304 7.81159,-29.59183 9.82481,-29.25213 2.98711,0.50402 -4.34158,20.34555 -6.44614,30.54135 z"
       id="path17" /></g><g
     id="layer2"
     style="display:inline"
     transform="translate(-26.851495,-36.276223)"><text
       xml:space="preserve"
       transform="matrix(4.7298648,0,0,4.7012231,-2960.6324,-638.914)"
       id="text17"
       style="font-style:normal;font-variant:normal;font-weight:normal;font-stretch:normal;font-family:'Segoe UI Historic';-inkscape-font-specification:'Segoe UI Historic';white-space:pre;shape-inside:url(#rect17);fill:#2c332c;fill-opacity:1;stroke:none;stroke-opacity:1"><tspan
         x="662.68359"
         y="162.12637"
         id="tspan2"><tspan
           style="font-weight:300;font-family:'Perpetua Titling MT';-inkscape-font-specification:'Perpetua Titling MT Light'"
           id="tspan1">The Recipe Room</tspan></tspan></text></g></svg>
